<svg width="150" height="51" viewBox="0 0 150 51" fill="none" xmlns="http://www.w3.org/2000/svg">
<g clip-path="url(#clip0_1_101)">
<path d="M138.055 0.000162956H11.9518C11.4921 0.000162956 11.038 0.000162956 10.5796 0.00266997C10.1958 0.00517699 9.81509 0.0124599 9.42764 0.0185895C8.58593 0.0284945 7.74619 0.102545 6.91573 0.240097C6.08644 0.380644 5.28313 0.645615 4.53296 1.02605C3.78372 1.4097 3.09911 1.90821 2.50397 2.50351C1.90571 3.09713 1.40702 3.78327 1.02706 4.53556C0.646059 5.28635 0.38187 6.09089 0.243619 6.92139C0.104055 7.75084 0.028954 8.58986 0.0189907 9.43091C0.0073581 9.81524 0.00612966 10.2008 0 10.5852V39.5592C0.00612966 39.9484 0.0073581 40.3254 0.0189907 40.7148C0.0289571 41.5558 0.104058 42.3947 0.243619 43.2242C0.381488 44.0551 0.645693 44.8601 1.02706 45.6112C1.40685 46.3611 1.90561 47.0444 2.50397 47.6348C3.09685 48.2327 3.7819 48.7316 4.53296 49.1123C5.28312 49.4937 6.08635 49.7603 6.91573 49.903C7.74633 50.0394 8.58598 50.1135 9.42764 50.1246C9.81509 50.1331 10.1958 50.138 10.5796 50.138C11.038 50.1405 11.4922 50.1405 11.9518 50.1405H138.055C138.505 50.1405 138.963 50.1405 139.414 50.138C139.796 50.138 140.187 50.1331 140.569 50.1246C141.409 50.1141 142.247 50.04 143.076 49.903C143.908 49.7593 144.715 49.4928 145.468 49.1123C146.219 48.7313 146.903 48.2325 147.495 47.6348C148.092 47.0421 148.592 46.3593 148.977 45.6112C149.355 44.8596 149.617 44.0547 149.753 43.2242C149.892 42.3946 149.97 41.5558 149.985 40.7148C149.99 40.3254 149.99 39.9484 149.99 39.5592C150 39.1038 150 38.6509 150 38.1881V11.9538C150 11.4947 150 11.0394 149.99 10.5852C149.99 10.2008 149.99 9.81524 149.985 9.43086C149.97 8.58974 149.892 7.75091 149.753 6.92134C149.616 6.09132 149.355 5.28684 148.977 4.53551C148.203 3.02763 146.976 1.80023 145.468 1.02593C144.715 0.646431 143.908 0.381531 143.076 0.239984C142.248 0.101826 141.409 0.0277499 140.569 0.018414C140.187 0.0122969 139.796 0.00495136 139.414 0.00250702C138.963 0 138.505 0.000162956 138.055 0.000162956Z" fill="#A6A6A6"/>
<path d="M10.5856 49.0434C10.2037 49.0434 9.83097 49.0385 9.45205 49.03C8.66708 49.0198 7.88394 48.9514 7.10906 48.8255C6.38653 48.7011 5.68659 48.4696 5.03233 48.1387C4.38406 47.8106 3.79279 47.3803 3.28117 46.8644C2.76215 46.3546 2.33003 45.7633 2.00195 45.1139C1.67026 44.4603 1.44071 43.7597 1.3213 43.0366C1.19234 42.2596 1.12257 41.4739 1.11259 40.6863C1.10464 40.4219 1.09424 39.5417 1.09424 39.5417V10.5849C1.09424 10.5849 1.10532 9.71823 1.11265 9.4636C1.12221 8.67725 1.19158 7.89277 1.32015 7.11695C1.43978 6.39182 1.66951 5.68922 2.00138 5.03349C2.32825 4.38456 2.75796 3.7928 3.27386 3.28115C3.78919 2.76463 4.38235 2.33214 5.03171 1.99947C5.68447 1.66965 6.38309 1.43981 7.10416 1.31764C7.88159 1.19049 8.66744 1.12174 9.45513 1.11199L10.5862 1.09668H139.408L140.552 1.1126C141.333 1.12187 142.111 1.19 142.882 1.31641C143.61 1.44011 144.316 1.67156 144.976 2.00314C146.277 2.67358 147.336 3.73427 148.003 5.03655C148.33 5.68775 148.556 6.38462 148.674 7.10348C148.804 7.88567 148.877 8.67632 148.892 9.46912C148.896 9.82411 148.896 10.2054 148.896 10.5849C148.906 11.055 148.906 11.5024 148.906 11.9535V38.1878C148.906 38.6432 148.906 39.0875 148.896 39.5355C148.896 39.9432 148.896 40.3166 148.891 40.7009C148.876 41.4796 148.805 42.2561 148.677 43.0243C148.56 43.7527 148.331 44.4587 148 45.1177C147.669 45.76 147.24 46.3462 146.727 46.8547C146.215 47.3733 145.622 47.8061 144.972 48.1364C144.314 48.4698 143.609 48.7021 142.882 48.8255C142.107 48.9521 141.324 49.0204 140.539 49.03C140.171 49.0385 139.787 49.0434 139.414 49.0434L138.055 49.0459L10.5856 49.0434Z" fill="black"/>
<path d="M31.0481 25.4474C31.0616 24.4012 31.3395 23.3753 31.8559 22.4653C32.3724 21.5553 33.1107 20.7908 34.002 20.2428C33.4358 19.4341 32.6888 18.7685 31.8203 18.299C30.9518 17.8295 29.9859 17.569 28.9991 17.5381C26.8941 17.3172 24.8535 18.7977 23.7809 18.7977C22.6875 18.7977 21.036 17.56 19.2576 17.5966C18.1073 17.6338 16.9862 17.9683 16.0036 18.5675C15.021 19.1668 14.2104 20.0104 13.6507 21.016C11.2264 25.2133 13.0347 31.3819 15.357 34.7747C16.5189 36.436 17.8768 38.2917 19.6536 38.2259C21.3923 38.1538 22.0416 37.1172 24.1404 37.1172C26.2196 37.1172 26.8289 38.2259 28.6417 38.1841C30.5074 38.1538 31.6829 36.5154 32.804 34.8383C33.6388 33.6545 34.2812 32.3462 34.7074 30.9618C33.6235 30.5034 32.6985 29.736 32.0477 28.7554C31.397 27.7748 31.0493 26.6243 31.0481 25.4474Z" fill="white"/>
<path d="M27.6238 15.3067C28.641 14.0855 29.1422 12.5159 29.0208 10.9312C27.4667 11.0944 26.0311 11.8372 25.0001 13.0115C24.496 13.5852 24.11 14.2526 23.864 14.9756C23.618 15.6986 23.5169 16.4629 23.5665 17.225C24.3438 17.233 25.1129 17.0645 25.8156 16.7322C26.5184 16.4 27.1367 15.9125 27.6238 15.3067Z" fill="white"/>
<path d="M53.0262 34.0204H47.0928L45.6679 38.2277H43.1548L48.7748 22.6616H51.3858L57.0058 38.2277H54.4498L53.0262 34.0204ZM47.7073 32.0789H52.4105L50.092 25.2507H50.0271L47.7073 32.0789Z" fill="white"/>
<path d="M69.143 32.5537C69.143 36.0804 67.2554 38.3463 64.4068 38.3463C63.6853 38.384 62.9676 38.2178 62.3361 37.8667C61.7046 37.5155 61.1847 36.9936 60.8361 36.3607H60.7822V41.982H58.4526V26.8787H60.7075V28.7663H60.7504C61.1151 28.1364 61.6437 27.6172 62.28 27.2639C62.9164 26.9106 63.6366 26.7364 64.364 26.7599C67.2443 26.7599 69.143 29.0368 69.143 32.5537ZM66.7486 32.5537C66.7486 30.256 65.5612 28.7455 63.7495 28.7455C61.9696 28.7455 60.7724 30.2879 60.7724 32.5537C60.7724 34.8404 61.9696 36.3718 63.7495 36.3718C65.5612 36.3718 66.7486 34.8722 66.7486 32.5537Z" fill="white"/>
<path d="M81.6342 32.5537C81.6342 36.0804 79.7466 38.3463 76.8981 38.3463C76.1765 38.384 75.4588 38.2178 74.8273 37.8667C74.1958 37.5155 73.676 36.9936 73.3273 36.3607H73.2734V41.9819H70.9438V26.8786H73.1987V28.7662H73.2415C73.6062 28.1364 74.1349 27.6172 74.7712 27.2639C75.4075 26.9106 76.1277 26.7364 76.8552 26.7599C79.7356 26.7599 81.6342 29.0368 81.6342 32.5537ZM79.2398 32.5537C79.2398 30.256 78.0524 28.7454 76.2407 28.7454C74.4608 28.7454 73.2636 30.2878 73.2636 32.5537C73.2636 34.8404 74.4608 36.3718 76.2407 36.3718C78.0524 36.3718 79.2398 34.8722 79.2398 32.5537Z" fill="white"/>
<path d="M89.8895 33.8904C90.0621 35.434 91.5617 36.4475 93.6109 36.4475C95.5744 36.4475 96.987 35.434 96.987 34.0421C96.987 32.8339 96.135 32.1105 94.1177 31.6147L92.1003 31.1287C89.242 30.4383 87.915 29.1015 87.915 26.9324C87.915 24.2466 90.2556 22.4019 93.5791 22.4019C96.8683 22.4019 99.1231 24.2466 99.199 26.9324H96.8475C96.7067 25.3789 95.4226 24.4413 93.546 24.4413C91.6694 24.4413 90.3853 25.39 90.3853 26.7708C90.3853 27.8713 91.2054 28.5188 93.2118 29.0146L94.9268 29.4357C98.1205 30.191 99.4475 31.4739 99.4475 33.7507C99.4475 36.6629 97.1278 38.4869 93.4382 38.4869C89.9862 38.4869 87.6555 36.7058 87.5049 33.8903L89.8895 33.8904Z" fill="white"/>
<path d="M104.475 24.1929V26.8786H106.633V28.7234H104.475V34.9799C104.475 35.9519 104.907 36.4048 105.856 36.4048C106.112 36.4003 106.368 36.3823 106.622 36.3509V38.1846C106.196 38.2643 105.762 38.3004 105.328 38.2924C103.031 38.2924 102.134 37.4293 102.134 35.2284V28.7234H100.484V26.8786H102.134V24.1929H104.475Z" fill="white"/>
<path d="M107.883 32.5539C107.883 28.9831 109.986 26.7393 113.266 26.7393C116.556 26.7393 118.65 28.983 118.65 32.5539C118.65 36.1345 116.567 38.3685 113.266 38.3685C109.965 38.3685 107.883 36.1344 107.883 32.5539ZM116.276 32.5539C116.276 30.1044 115.153 28.6587 113.266 28.6587C111.378 28.6587 110.257 30.1154 110.257 32.5539C110.257 35.0131 111.378 36.4478 113.266 36.4478C115.153 36.4478 116.276 35.0131 116.276 32.5539Z" fill="white"/>
<path d="M120.57 26.8785H122.792V28.8102H122.846C122.996 28.2069 123.349 27.6737 123.846 27.3003C124.344 26.9269 124.954 26.7361 125.575 26.7598C125.844 26.7588 126.112 26.788 126.373 26.8467V29.0257C126.035 28.9221 125.681 28.8745 125.327 28.8849C124.988 28.8712 124.651 28.9308 124.338 29.0598C124.025 29.1888 123.743 29.384 123.512 29.632C123.282 29.8801 123.108 30.1751 123.002 30.4969C122.896 30.8186 122.861 31.1594 122.899 31.4959V38.2274H120.57L120.57 26.8785Z" fill="white"/>
<path d="M137.114 34.8939C136.801 36.9541 134.795 38.368 132.228 38.368C128.926 38.368 126.877 36.156 126.877 32.6072C126.877 29.0475 128.937 26.7388 132.13 26.7388C135.27 26.7388 137.244 28.8957 137.244 32.3367V33.1348H129.229V33.2756C129.192 33.6933 129.244 34.114 129.382 34.51C129.52 34.9059 129.741 35.2679 130.03 35.5719C130.318 35.8759 130.668 36.1151 131.057 36.2734C131.445 36.4317 131.862 36.5056 132.281 36.4902C132.832 36.5418 133.384 36.4143 133.857 36.1267C134.329 35.8391 134.696 35.4067 134.902 34.8939L137.114 34.8939ZM129.24 31.5068H134.913C134.934 31.1312 134.877 30.7554 134.746 30.4029C134.615 30.0504 134.412 29.7288 134.151 29.4584C133.889 29.1879 133.575 28.9744 133.227 28.8312C132.879 28.688 132.506 28.6183 132.13 28.6264C131.75 28.6241 131.374 28.697 131.023 28.8408C130.672 28.9847 130.353 29.1966 130.084 29.4644C129.816 29.7322 129.603 30.0505 129.458 30.4011C129.313 30.7516 129.239 31.1274 129.24 31.5068Z" fill="white"/>
<path d="M47.4155 10.944C47.9039 10.909 48.394 10.9828 48.8504 11.1601C49.3068 11.3373 49.7182 11.6137 50.0549 11.9692C50.3915 12.3248 50.6451 12.7506 50.7973 13.216C50.9495 13.6814 50.9965 14.1747 50.9349 14.6605C50.9349 17.05 49.6434 18.4235 47.4155 18.4235H44.7139V10.944H47.4155ZM45.8756 17.3658H47.2858C47.6347 17.3866 47.984 17.3294 48.3081 17.1983C48.6321 17.0671 48.9229 16.8654 49.1592 16.6077C49.3955 16.35 49.5713 16.0429 49.6739 15.7087C49.7765 15.3745 49.8033 15.0216 49.7524 14.6757C49.7996 14.3312 49.7701 13.9805 49.6659 13.6488C49.5617 13.317 49.3855 13.0124 49.1497 12.7568C48.914 12.5011 48.6246 12.3008 48.3024 12.1702C47.9801 12.0395 47.633 11.9817 47.2858 12.001H45.8756V17.3658Z" fill="white"/>
<path d="M52.247 15.5991C52.2115 15.2281 52.2539 14.8539 52.3715 14.5003C52.4892 14.1467 52.6794 13.8216 52.93 13.5459C53.1807 13.2701 53.4862 13.0498 53.8269 12.8991C54.1677 12.7483 54.5362 12.6704 54.9088 12.6704C55.2815 12.6704 55.65 12.7483 55.9908 12.8991C56.3315 13.0498 56.637 13.2701 56.8876 13.5459C57.1383 13.8216 57.3285 14.1467 57.4461 14.5003C57.5638 14.8539 57.6062 15.2281 57.5707 15.5991C57.6069 15.9704 57.5649 16.3452 57.4476 16.6993C57.3303 17.0535 57.1402 17.3792 56.8895 17.6554C56.6388 17.9317 56.3331 18.1525 55.992 18.3036C55.6509 18.4547 55.2819 18.5328 54.9088 18.5328C54.5358 18.5328 54.1668 18.4547 53.8257 18.3036C53.4846 18.1525 53.1789 17.9317 52.9282 17.6554C52.6775 17.3792 52.4874 17.0535 52.3701 16.6993C52.2527 16.3452 52.2108 15.9704 52.247 15.5991ZM56.4249 15.5991C56.4249 14.3756 55.8753 13.6601 54.9107 13.6601C53.9424 13.6601 53.3977 14.3756 53.3977 15.5991C53.3977 16.8324 53.9424 17.5424 54.9107 17.5424C55.8753 17.5424 56.4249 16.8275 56.4249 15.5991Z" fill="white"/>
<path d="M64.6474 18.4238H63.4919L62.3253 14.2666H62.2371L61.0754 18.4238H59.9309L58.375 12.7793H59.5049L60.516 17.0864H60.5993L61.7597 12.7793H62.8284L63.9889 17.0864H64.077L65.0832 12.7793H66.1972L64.6474 18.4238Z" fill="white"/>
<path d="M67.5059 12.7791H68.5782V13.6757H68.6614C68.8027 13.3537 69.0408 13.0837 69.3428 12.9034C69.6447 12.7232 69.9953 12.6416 70.3458 12.6701C70.6205 12.6495 70.8963 12.6909 71.1527 12.7913C71.4092 12.8917 71.6398 13.0485 71.8274 13.2501C72.015 13.4517 72.1549 13.693 72.2366 13.956C72.3184 14.219 72.3399 14.497 72.2996 14.7695V18.4235H71.1856V15.0492C71.1856 14.1421 70.7914 13.691 69.9676 13.691C69.7811 13.6824 69.595 13.7141 69.4219 13.7841C69.2489 13.8541 69.093 13.9606 68.965 14.0965C68.837 14.2324 68.7398 14.3943 68.6803 14.5712C68.6207 14.7481 68.6001 14.9358 68.6198 15.1214V18.4235H67.5059L67.5059 12.7791Z" fill="white"/>
<path d="M74.0747 10.5757H75.1887V18.4236H74.0747V10.5757Z" fill="white"/>
<path d="M76.7372 15.5987C76.7017 15.2277 76.7442 14.8535 76.8618 14.4999C76.9795 14.1463 77.1697 13.8212 77.4204 13.5454C77.6711 13.2697 77.9766 13.0493 78.3174 12.8986C78.6582 12.7478 79.0267 12.6699 79.3994 12.6699C79.772 12.6699 80.1405 12.7478 80.4813 12.8986C80.8221 13.0493 81.1276 13.2697 81.3783 13.5454C81.629 13.8212 81.8192 14.1463 81.9369 14.4999C82.0545 14.8535 82.097 15.2277 82.0615 15.5987C82.0976 15.97 82.0557 16.3448 81.9383 16.699C81.821 17.0531 81.6308 17.3788 81.3801 17.6551C81.1294 17.9313 80.8236 18.1521 80.4825 18.3032C80.1414 18.4543 79.7724 18.5323 79.3994 18.5323C79.0263 18.5323 78.6573 18.4543 78.3162 18.3032C77.9751 18.1521 77.6693 17.9313 77.4186 17.6551C77.1679 17.3788 76.9777 17.0531 76.8604 16.699C76.743 16.3448 76.7011 15.97 76.7372 15.5987ZM80.9151 15.5987C80.9151 14.3752 80.3655 13.6597 79.4009 13.6597C78.4326 13.6597 77.8879 14.3752 77.8879 15.5987C77.8879 16.832 78.4326 17.542 79.4009 17.542C80.3655 17.542 80.9151 16.8271 80.9151 15.5987Z" fill="white"/>
<path d="M83.2344 16.8275C83.2344 15.8115 83.9909 15.2258 85.3337 15.1425L86.8627 15.0544V14.5672C86.8627 13.971 86.4685 13.6344 85.7071 13.6344C85.0853 13.6344 84.6544 13.8627 84.5307 14.2618H83.4523C83.5661 13.2923 84.4781 12.6704 85.7585 12.6704C87.1736 12.6704 87.9718 13.3749 87.9718 14.5672V18.4238H86.8994V17.6306H86.8113C86.6324 17.9151 86.3812 18.1471 86.0833 18.3028C85.7855 18.4585 85.4516 18.5323 85.1159 18.5168C84.8789 18.5415 84.6394 18.5162 84.4128 18.4426C84.1862 18.369 83.9776 18.2488 83.8003 18.0896C83.6231 17.9305 83.4811 17.7359 83.3836 17.5185C83.2862 17.3012 83.2353 17.0658 83.2344 16.8275ZM86.8627 16.3452V15.8733L85.4843 15.9615C84.707 16.0135 84.3544 16.2779 84.3544 16.7755C84.3544 17.2835 84.7951 17.5792 85.4011 17.5792C85.5787 17.5971 85.758 17.5792 85.9285 17.5264C86.099 17.4737 86.2571 17.3872 86.3935 17.272C86.5299 17.1569 86.6417 17.0155 86.7223 16.8563C86.8029 16.6971 86.8506 16.5233 86.8627 16.3452Z" fill="white"/>
<path d="M89.4355 15.5989C89.4355 13.8154 90.3524 12.6855 91.7785 12.6855C92.1313 12.6692 92.4814 12.7537 92.7879 12.9291C93.0944 13.1044 93.3447 13.3634 93.5095 13.6758H93.5927V10.5757H94.7067V18.4236H93.6392V17.5318H93.5511C93.3736 17.842 93.1146 18.0978 92.8021 18.2714C92.4897 18.445 92.1357 18.5298 91.7785 18.5166C90.3426 18.5167 89.4355 17.3868 89.4355 15.5989ZM90.5863 15.5989C90.5863 16.7961 91.1506 17.5165 92.0944 17.5165C93.0333 17.5165 93.6135 16.7857 93.6135 15.6038C93.6135 14.4274 93.0272 13.6862 92.0944 13.6862C91.1567 13.6862 90.5863 14.4115 90.5863 15.5989Z" fill="white"/>
<path d="M99.3153 15.5991C99.2798 15.2281 99.3223 14.8539 99.4399 14.5003C99.5575 14.1467 99.7478 13.8216 99.9984 13.5459C100.249 13.2701 100.555 13.0498 100.895 12.8991C101.236 12.7483 101.605 12.6704 101.977 12.6704C102.35 12.6704 102.718 12.7483 103.059 12.8991C103.4 13.0498 103.705 13.2701 103.956 13.5459C104.207 13.8216 104.397 14.1467 104.514 14.5003C104.632 14.8539 104.675 15.2281 104.639 15.5991C104.675 15.9704 104.633 16.3452 104.516 16.6993C104.399 17.0535 104.209 17.3792 103.958 17.6554C103.707 17.9317 103.401 18.1525 103.06 18.3036C102.719 18.4547 102.35 18.5328 101.977 18.5328C101.604 18.5328 101.235 18.4547 100.894 18.3036C100.553 18.1525 100.247 17.9317 99.9965 17.6554C99.7458 17.3792 99.5557 17.0535 99.4384 16.6993C99.3211 16.3452 99.2792 15.9704 99.3153 15.5991ZM103.493 15.5991C103.493 14.3756 102.944 13.6601 101.979 13.6601C101.011 13.6601 100.466 14.3756 100.466 15.5991C100.466 16.8324 101.011 17.5424 101.979 17.5424C102.944 17.5424 103.493 16.8275 103.493 15.5991Z" fill="white"/>
<path d="M106.134 12.7791H107.206V13.6757H107.289C107.431 13.3537 107.669 13.0837 107.971 12.9034C108.273 12.7232 108.623 12.6416 108.974 12.6701C109.248 12.6495 109.524 12.6909 109.781 12.7913C110.037 12.8917 110.268 13.0485 110.455 13.2501C110.643 13.4517 110.783 13.693 110.865 13.956C110.946 14.219 110.968 14.497 110.927 14.7695V18.4235H109.814V15.0492C109.814 14.1421 109.419 13.691 108.596 13.691C108.409 13.6824 108.223 13.7141 108.05 13.7841C107.877 13.8541 107.721 13.9606 107.593 14.0965C107.465 14.2324 107.368 14.3943 107.308 14.5712C107.249 14.7481 107.228 14.9358 107.248 15.1214V18.4235H106.134V12.7791Z" fill="white"/>
<path d="M117.222 11.374V12.805H118.445V13.7433H117.222V16.6457C117.222 17.237 117.466 17.4959 118.02 17.4959C118.162 17.4954 118.304 17.4869 118.445 17.4702V18.3981C118.245 18.4339 118.042 18.4529 117.839 18.455C116.6 18.455 116.107 18.0192 116.107 16.931V13.7433H115.211V12.805H116.107V11.374H117.222Z" fill="white"/>
<path d="M119.967 10.5757H121.071V13.6862H121.159C121.307 13.3611 121.552 13.0896 121.86 12.9087C122.168 12.7278 122.524 12.6462 122.88 12.6751C123.153 12.6602 123.427 12.7058 123.68 12.8087C123.934 12.9115 124.161 13.069 124.347 13.27C124.533 13.471 124.672 13.7105 124.754 13.9714C124.837 14.2323 124.861 14.5082 124.824 14.7794V18.4236H123.709V15.0542C123.709 14.1526 123.289 13.696 122.502 13.696C122.311 13.6803 122.118 13.7066 121.938 13.7731C121.758 13.8396 121.594 13.9447 121.459 14.081C121.323 14.2173 121.219 14.3815 121.154 14.5622C121.089 14.7429 121.064 14.9356 121.081 15.127V18.4236H119.967L119.967 10.5757Z" fill="white"/>
<path d="M131.319 16.8994C131.168 17.4152 130.84 17.8615 130.393 18.16C129.946 18.4585 129.408 18.5903 128.874 18.5324C128.502 18.5422 128.132 18.471 127.791 18.3236C127.449 18.1763 127.144 17.9564 126.896 17.6792C126.647 17.402 126.463 17.0742 126.354 16.7184C126.245 16.3626 126.215 15.9875 126.266 15.6189C126.217 15.2493 126.247 14.8733 126.356 14.5165C126.464 14.1597 126.648 13.8303 126.895 13.5507C127.141 13.271 127.445 13.0477 127.786 12.8958C128.127 12.7438 128.496 12.6668 128.869 12.67C130.439 12.67 131.387 13.743 131.387 15.5155V15.9042H127.401V15.9666C127.384 16.1737 127.41 16.3822 127.477 16.5787C127.545 16.7752 127.653 16.9554 127.795 17.1076C127.937 17.2598 128.108 17.3808 128.299 17.4628C128.49 17.5448 128.696 17.5859 128.904 17.5836C129.171 17.6156 129.441 17.5676 129.68 17.4458C129.919 17.3239 130.116 17.1337 130.247 16.8993L131.319 16.8994ZM127.401 15.0803H130.252C130.266 14.8909 130.24 14.7006 130.176 14.5217C130.113 14.3428 130.012 14.1792 129.881 14.0415C129.75 13.9038 129.592 13.795 129.417 13.7221C129.241 13.6492 129.053 13.6138 128.863 13.6181C128.67 13.6157 128.479 13.6519 128.3 13.7245C128.122 13.7971 127.96 13.9048 127.823 14.041C127.687 14.1773 127.58 14.3395 127.507 14.518C127.435 14.6965 127.398 14.8877 127.401 15.0803Z" fill="white"/>
</g>
<defs>
<clipPath id="clip0_1_101">
<rect width="150" height="51" fill="white"/>
</clipPath>
</defs>
</svg>
