<svg width="27" height="27" viewBox="0 0 27 27" fill="none" xmlns="http://www.w3.org/2000/svg">
<rect width="27" height="27" fill="#1E1E1E"/>
<path d="M-3163 -5963C-3163 -5991.72 -3139.72 -6015 -3111 -6015H1381C1409.72 -6015 1433 -5991.72 1433 -5963V984C1433 1012.72 1409.72 1036 1381 1036H-3111C-3139.72 1036 -3163 1012.72 -3163 984V-5963Z" fill="#85888F" fill-opacity="0.16"/>
<path d="M-3111 -6015V-6014H1381V-6015V-6016H-3111V-6015ZM1433 -5963H1432V984H1433H1434V-5963H1433ZM1381 1036V1035H-3111V1036V1037H1381V1036ZM-3163 984H-3162V-5963H-3163H-3164V984H-3163ZM-3111 1036V1035C-3139.17 1035 -3162 1012.17 -3162 984H-3163H-3164C-3164 1013.27 -3140.27 1037 -3111 1037V1036ZM1433 984H1432C1432 1012.17 1409.17 1035 1381 1035V1036V1037C1410.27 1037 1434 1013.27 1434 984H1433ZM1381 -6015V-6014C1409.17 -6014 1432 -5991.17 1432 -5963H1433H1434C1434 -5992.27 1410.27 -6016 1381 -6016V-6015ZM-3111 -6015V-6016C-3140.27 -6016 -3164 -5992.27 -3164 -5963H-3163H-3162C-3162 -5991.17 -3139.17 -6014 -3111 -6014V-6015Z" fill="#85888F" fill-opacity="0.1"/>
<g clip-path="url(#clip0_0_1)">
<rect width="1440" height="6107" transform="translate(-1057 -5915)" fill="black"/>
<rect width="1440" height="720" transform="matrix(1 0 0 -1 -1057 192)" fill="#85888F"/>
<rect x="-16" y="-16" width="59" height="59" rx="29.5" fill="#EDF5FF" fill-opacity="0.1"/>
<path d="M20.7972 3.40771H6.04718C4.49455 3.40771 3.25244 4.64982 3.25244 6.20245V20.9524C3.25244 22.5051 4.49455 23.7472 6.04718 23.7472H13.3445V16.6051H11.4814C11.1709 16.6051 11.0156 16.4498 11.0156 16.1393V13.8103C11.0156 13.4998 11.1709 13.3446 11.4814 13.3446H13.3445V11.1709C13.3445 8.5314 14.8972 7.13403 17.2261 7.13403H19.0893C19.3998 7.13403 19.5551 7.28929 19.5551 7.59982V9.61824C19.5551 9.92877 19.3998 10.084 19.0893 10.084H17.8472C16.6051 10.084 16.2945 10.7051 16.2945 11.6367V13.6551H19.0893C19.3998 13.6551 19.5551 13.8103 19.5551 14.1209L19.2445 16.4498C19.2445 16.6051 19.0893 16.9156 18.7788 16.9156H16.6051V24.0577H20.9524C22.5051 24.0577 23.7472 22.8156 23.7472 21.263V6.51298C23.5919 4.64982 22.3498 3.40771 20.7972 3.40771Z" fill="white"/>
</g>
<defs>
<clipPath id="clip0_0_1">
<rect width="1440" height="6107" fill="white" transform="translate(-1057 -5915)"/>
</clipPath>
</defs>
</svg>
