<svg width="27" height="27" viewBox="0 0 27 27" fill="none" xmlns="http://www.w3.org/2000/svg">
<path d="M13.5003 4.96081H17.6924C20.4871 5.11608 21.8845 6.35818 22.0398 9.30818V17.6924C21.8845 20.4871 20.6424 21.8845 17.6924 22.0398H9.30818C6.51344 21.8845 5.11608 20.4871 4.96081 17.6924V13.5003V9.30818C5.11608 6.51344 6.35818 5.11608 9.30818 4.96081H13.5003ZM13.5003 3.09766H9.15292C5.4266 3.25292 3.25292 5.4266 3.09766 9.15292V17.8477C3.25292 21.574 5.4266 23.7477 9.15292 23.9029H17.8477C21.574 23.7477 23.7477 21.574 23.9029 17.8477V13.5003V9.15292C23.7477 5.4266 21.574 3.25292 17.8477 3.09766H13.5003ZM13.5003 8.06608C10.5503 8.06608 8.06608 10.395 8.06608 13.5003C8.06608 16.4503 10.395 18.9345 13.5003 18.9345C16.6055 18.9345 18.9345 16.6055 18.9345 13.5003C18.9345 10.5503 16.4503 8.06608 13.5003 8.06608ZM13.5003 16.9161C11.6371 16.9161 10.0845 15.3634 10.0845 13.5003C10.0845 11.6371 11.6371 10.0845 13.5003 10.0845C15.3634 10.0845 16.9161 11.6371 16.9161 13.5003C16.9161 15.3634 15.3634 16.9161 13.5003 16.9161ZM19.0898 6.66871C18.4687 6.66871 17.8477 7.28976 17.8477 7.91081C17.8477 8.53187 18.4687 9.15292 19.0898 9.15292C19.7108 9.15292 20.3319 8.53187 20.3319 7.91081C20.3319 7.28976 19.7108 6.66871 19.0898 6.66871Z" fill="white"/>
</svg>
