<svg width="80" height="22" viewBox="0 0 80 22" fill="none" xmlns="http://www.w3.org/2000/svg">
<path d="M6.12227 21.5335L0.0771484 0.406506H4.95657L8.45367 15.086H8.62904L12.4872 0.406506H16.6651L20.513 15.117H20.6987L24.1957 0.406506H29.0752L23.03 21.5335H18.6767L14.6535 7.72049H14.4885L10.4756 21.5335H6.12227Z" fill="white"/>
<path d="M35.9327 0.406506V21.5335H31.4659V0.406506H35.9327Z" fill="white"/>
<path d="M43.4246 0.406506L48.531 16.4581H48.727L53.8437 0.406506H58.7953L51.5123 21.5335H45.756L38.4626 0.406506H43.4246Z" fill="white"/>
<path d="M79.5612 10.97C79.5612 13.2739 79.1245 15.2339 78.2511 16.8501C77.3846 18.4662 76.2017 19.7007 74.7024 20.5535C73.2101 21.3994 71.532 21.8223 69.6683 21.8223C67.7908 21.8223 66.1059 21.3959 64.6135 20.5432C63.1211 19.6904 61.9417 18.4559 61.0751 16.8398C60.2086 15.2236 59.7753 13.267 59.7753 10.97C59.7753 8.66611 60.2086 6.70609 61.0751 5.08993C61.9417 3.47377 63.1211 2.24274 64.6135 1.39683C66.1059 0.544052 67.7908 0.117661 69.6683 0.117661C71.532 0.117661 73.2101 0.544052 74.7024 1.39683C76.2017 2.24274 77.3846 3.47377 78.2511 5.08993C79.1245 6.70609 79.5612 8.66611 79.5612 10.97ZM75.0325 10.97C75.0325 9.47763 74.809 8.21909 74.362 7.19438C73.9219 6.16966 73.2995 5.39253 72.4948 4.86298C71.6902 4.33343 70.748 4.06866 69.6683 4.06866C68.5885 4.06866 67.6464 4.33343 66.8417 4.86298C66.0371 5.39253 65.4112 6.16966 64.9642 7.19438C64.5241 8.21909 64.304 9.47763 64.304 10.97C64.304 12.4624 64.5241 13.7209 64.9642 14.7456C65.4112 15.7703 66.0371 16.5475 66.8417 17.077C67.6464 17.6066 68.5885 17.8713 69.6683 17.8713C70.748 17.8713 71.6902 17.6066 72.4948 17.077C73.2995 16.5475 73.9219 15.7703 74.362 14.7456C74.809 13.7209 75.0325 12.4624 75.0325 10.97Z" fill="white"/>
</svg>
